<svg width="40" height="40" viewBox="0 0 40 40" fill="none" xmlns="http://www.w3.org/2000/svg">
<path d="M18.0168 28.2504C17.7002 28.2504 17.3835 28.1337 17.1335 27.8837L14.6335 25.3837C14.1502 24.9004 14.1502 24.1004 14.6335 23.6171C15.1168 23.1337 15.9168 23.1337 16.4002 23.6171L18.0168 25.2337L23.8002 19.4504C24.2835 18.9671 25.0835 18.9671 25.5668 19.4504C26.0502 19.9337 26.0502 20.7337 25.5668 21.2171L18.9002 27.8837C18.6668 28.1337 18.3335 28.2504 18.0168 28.2504Z" fill="white"/>
<path d="M23.3335 11.2497H16.6668C15.0668 11.2497 12.0835 11.2497 12.0835 6.66634C12.0835 2.08301 15.0668 2.08301 16.6668 2.08301H23.3335C24.9335 2.08301 27.9168 2.08301 27.9168 6.66634C27.9168 8.26634 27.9168 11.2497 23.3335 11.2497ZM16.6668 4.58301C15.0168 4.58301 14.5835 4.58301 14.5835 6.66634C14.5835 8.74967 15.0168 8.74967 16.6668 8.74967H23.3335C25.4168 8.74967 25.4168 8.31634 25.4168 6.66634C25.4168 4.58301 24.9835 4.58301 23.3335 4.58301H16.6668Z" fill="white"/>
<path d="M25 37.9164H15C5.63333 37.9164 3.75 33.6164 3.75 26.6664V16.6664C3.75 9.06639 6.5 5.81639 13.2667 5.46639C13.95 5.43306 14.55 5.94972 14.5833 6.64972C14.6167 7.34972 14.0833 7.91639 13.4 7.94972C8.66667 8.21639 6.25 9.63306 6.25 16.6664V26.6664C6.25 32.8331 7.46667 35.4164 15 35.4164H25C32.5333 35.4164 33.75 32.8331 33.75 26.6664V16.6664C33.75 9.63306 31.3333 8.21639 26.6 7.94972C25.9167 7.91639 25.3833 7.31639 25.4167 6.63306C25.45 5.94972 26.0333 5.41639 26.7333 5.44972C33.5 5.81639 36.25 9.06639 36.25 16.6497V26.6497C36.25 33.6164 34.3667 37.9164 25 37.9164Z" fill="white"/>
</svg>
