<svg width="40" height="40" viewBox="0 0 40 40" fill="none" xmlns="http://www.w3.org/2000/svg">
<path d="M20.0002 38.0163C18.8502 38.0163 17.7668 37.433 17.0002 36.4163L14.5002 33.083C14.4502 33.0163 14.2502 32.933 14.1668 32.9163H13.3335C6.3835 32.9163 2.0835 31.033 2.0835 21.6663V13.333C2.0835 5.96634 5.96683 2.08301 13.3335 2.08301H26.6668C34.0335 2.08301 37.9168 5.96634 37.9168 13.333V21.6663C37.9168 29.033 34.0335 32.9163 26.6668 32.9163H25.8335C25.7002 32.9163 25.5835 32.983 25.5002 33.083L23.0002 36.4163C22.2335 37.433 21.1502 38.0163 20.0002 38.0163ZM13.3335 4.58301C7.36683 4.58301 4.5835 7.36634 4.5835 13.333V21.6663C4.5835 29.1997 7.16683 30.4163 13.3335 30.4163H14.1668C15.0168 30.4163 15.9835 30.8997 16.5002 31.583L19.0002 34.9163C19.5835 35.683 20.4168 35.683 21.0002 34.9163L23.5002 31.583C24.0502 30.8497 24.9168 30.4163 25.8335 30.4163H26.6668C32.6335 30.4163 35.4168 27.633 35.4168 21.6663V13.333C35.4168 7.36634 32.6335 4.58301 26.6668 4.58301H13.3335Z" fill="white"/>
<path d="M28.3332 14.583H11.6665C10.9832 14.583 10.4165 14.0163 10.4165 13.333C10.4165 12.6497 10.9832 12.083 11.6665 12.083H28.3332C29.0165 12.083 29.5832 12.6497 29.5832 13.333C29.5832 14.0163 29.0165 14.583 28.3332 14.583Z" fill="white"/>
<path d="M21.6665 22.917H11.6665C10.9832 22.917 10.4165 22.3503 10.4165 21.667C10.4165 20.9837 10.9832 20.417 11.6665 20.417H21.6665C22.3498 20.417 22.9165 20.9837 22.9165 21.667C22.9165 22.3503 22.3498 22.917 21.6665 22.917Z" fill="white"/>
</svg>
