<svg width="36" height="36" viewBox="0 0 36 36" fill="none" xmlns="http://www.w3.org/2000/svg">
<path d="M31.5 30.375H16.5C15.885 30.375 15.375 29.865 15.375 29.25C15.375 28.635 15.885 28.125 16.5 28.125H31.5C32.115 28.125 32.625 28.635 32.625 29.25C32.625 29.865 32.115 30.375 31.5 30.375Z" fill="white"/>
<path d="M31.5 19.875H16.5C15.885 19.875 15.375 19.365 15.375 18.75C15.375 18.135 15.885 17.625 16.5 17.625H31.5C32.115 17.625 32.625 18.135 32.625 18.75C32.625 19.365 32.115 19.875 31.5 19.875Z" fill="white"/>
<path d="M31.5 9.375H16.5C15.885 9.375 15.375 8.865 15.375 8.25C15.375 7.635 15.885 7.125 16.5 7.125H31.5C32.115 7.125 32.625 7.635 32.625 8.25C32.625 8.865 32.115 9.375 31.5 9.375Z" fill="white"/>
<path d="M6.00016 10.8752C5.71516 10.8752 5.43016 10.7702 5.20516 10.5452L3.70516 9.04516C3.27016 8.61016 3.27016 7.89016 3.70516 7.45516C4.14016 7.02016 4.86016 7.02016 5.29516 7.45516L6.00016 8.16016L9.70516 4.45516C10.1402 4.02016 10.8602 4.02016 11.2952 4.45516C11.7302 4.89016 11.7302 5.61016 11.2952 6.04516L6.79516 10.5452C6.57016 10.7702 6.28516 10.8752 6.00016 10.8752Z" fill="white"/>
<path d="M6.00016 21.3752C5.71516 21.3752 5.43016 21.2702 5.20516 21.0452L3.70516 19.5452C3.27016 19.1102 3.27016 18.3902 3.70516 17.9552C4.14016 17.5202 4.86016 17.5202 5.29516 17.9552L6.00016 18.6602L9.70516 14.9552C10.1402 14.5202 10.8602 14.5202 11.2952 14.9552C11.7302 15.3902 11.7302 16.1102 11.2952 16.5452L6.79516 21.0452C6.57016 21.2702 6.28516 21.3752 6.00016 21.3752Z" fill="white"/>
<path d="M6.00016 31.8752C5.71516 31.8752 5.43016 31.7702 5.20516 31.5452L3.70516 30.0452C3.27016 29.6102 3.27016 28.8902 3.70516 28.4552C4.14016 28.0202 4.86016 28.0202 5.29516 28.4552L6.00016 29.1602L9.70516 25.4552C10.1402 25.0202 10.8602 25.0202 11.2952 25.4552C11.7302 25.8902 11.7302 26.6102 11.2952 27.0452L6.79516 31.5452C6.57016 31.7702 6.28516 31.8752 6.00016 31.8752Z" fill="white"/>
</svg>
