<svg width="28" height="28" viewBox="0 0 28 28" fill="none" xmlns="http://www.w3.org/2000/svg">
<path d="M14.0235 23.9517C11.3052 23.9517 8.58684 23.5201 6.00851 22.6567C5.02851 22.3184 4.28184 21.6301 3.95517 20.7317C3.61684 19.8334 3.73351 18.8417 4.27017 17.9551L5.61184 15.7267C5.89184 15.2601 6.14851 14.3267 6.14851 13.7784V10.4067C6.14851 6.06674 9.68351 2.53174 14.0235 2.53174C18.3635 2.53174 21.8985 6.06674 21.8985 10.4067V13.7784C21.8985 14.3151 22.1552 15.2601 22.4352 15.7384L23.7652 17.9551C24.2668 18.7951 24.3602 19.8101 24.0218 20.7317C23.6835 21.6534 22.9485 22.3534 22.0268 22.6567C19.4602 23.5201 16.7418 23.9517 14.0235 23.9517ZM14.0235 4.28174C10.6518 4.28174 7.89851 7.0234 7.89851 10.4067V13.7784C7.89851 14.6301 7.54851 15.8901 7.11684 16.6251L5.77517 18.8534C5.51851 19.2851 5.44851 19.7401 5.60017 20.1251C5.74017 20.5217 6.09017 20.8251 6.56851 20.9884C11.4452 22.6217 16.6135 22.6217 21.4902 20.9884C21.9102 20.8484 22.2368 20.5334 22.3885 20.1134C22.5402 19.6934 22.5052 19.2384 22.2718 18.8534L20.9302 16.6251C20.4868 15.8667 20.1485 14.6184 20.1485 13.7667V10.4067C20.1485 7.0234 17.4068 4.28174 14.0235 4.28174Z" fill="#626262"/>
<path d="M16.1934 4.59622C16.1117 4.59622 16.0301 4.58455 15.9484 4.56122C15.6101 4.46789 15.2834 4.39789 14.9684 4.35122C13.9767 4.22289 13.0201 4.29289 12.1217 4.56122C11.7951 4.66622 11.4451 4.56122 11.2234 4.31622C11.0017 4.07122 10.9317 3.72122 11.0601 3.40622C11.5384 2.18122 12.7051 1.37622 14.0351 1.37622C15.3651 1.37622 16.5317 2.16955 17.0101 3.40622C17.1267 3.72122 17.0684 4.07122 16.8467 4.31622C16.6717 4.50289 16.4267 4.59622 16.1934 4.59622Z" fill="#626262"/>
<path d="M14.0225 26.6123C12.8675 26.6123 11.7475 26.1456 10.9308 25.329C10.1141 24.5123 9.64746 23.3923 9.64746 22.2373H11.3975C11.3975 22.9256 11.6775 23.6023 12.1675 24.0923C12.6575 24.5823 13.3341 24.8623 14.0225 24.8623C15.4691 24.8623 16.6475 23.684 16.6475 22.2373H18.3975C18.3975 24.6523 16.4375 26.6123 14.0225 26.6123Z" fill="#626262"/>
</svg>
