<svg width="28" height="28" viewBox="0 0 28 28" fill="none" xmlns="http://www.w3.org/2000/svg">
<path d="M13.9998 22.4583C9.33317 22.4583 5.5415 18.6666 5.5415 14C5.5415 9.33329 9.33317 5.54163 13.9998 5.54163C18.6665 5.54163 22.4582 9.33329 22.4582 14C22.4582 18.6666 18.6665 22.4583 13.9998 22.4583ZM13.9998 7.29163C10.3015 7.29163 7.2915 10.3016 7.2915 14C7.2915 17.6983 10.3015 20.7083 13.9998 20.7083C17.6982 20.7083 20.7082 17.6983 20.7082 14C20.7082 10.3016 17.6982 7.29163 13.9998 7.29163Z" fill="#626262"/>
<path d="M13.9998 26.7866C13.3582 26.7866 12.8332 26.3083 12.8332 25.6666V25.5733C12.8332 24.9316 13.3582 24.4066 13.9998 24.4066C14.6415 24.4066 15.1665 24.9316 15.1665 25.5733C15.1665 26.215 14.6415 26.7866 13.9998 26.7866ZM22.3298 23.4966C22.0265 23.4966 21.7348 23.38 21.5015 23.1583L21.3498 23.0066C20.8948 22.5516 20.8948 21.8166 21.3498 21.3616C21.8048 20.9066 22.5398 20.9066 22.9948 21.3616L23.1465 21.5133C23.6015 21.9683 23.6015 22.7033 23.1465 23.1583C22.9248 23.38 22.6332 23.4966 22.3298 23.4966ZM5.66984 23.4966C5.3665 23.4966 5.07484 23.38 4.8415 23.1583C4.3865 22.7033 4.3865 21.9683 4.8415 21.5133L4.99317 21.3616C5.44817 20.9066 6.18317 20.9066 6.63817 21.3616C7.09317 21.8166 7.09317 22.5516 6.63817 23.0066L6.4865 23.1583C6.26484 23.38 5.9615 23.4966 5.66984 23.4966ZM25.6665 15.1666H25.5732C24.9315 15.1666 24.4065 14.6416 24.4065 14C24.4065 13.3583 24.9315 12.8333 25.5732 12.8333C26.2148 12.8333 26.7865 13.3583 26.7865 14C26.7865 14.6416 26.3082 15.1666 25.6665 15.1666ZM2.4265 15.1666H2.33317C1.6915 15.1666 1.1665 14.6416 1.1665 14C1.1665 13.3583 1.6915 12.8333 2.33317 12.8333C2.97484 12.8333 3.5465 13.3583 3.5465 14C3.5465 14.6416 3.06817 15.1666 2.4265 15.1666ZM22.1782 6.98829C21.8748 6.98829 21.5832 6.87163 21.3498 6.64996C20.8948 6.19496 20.8948 5.45996 21.3498 5.00496L21.5015 4.85329C21.9565 4.39829 22.6915 4.39829 23.1465 4.85329C23.6015 5.30829 23.6015 6.04329 23.1465 6.49829L22.9948 6.64996C22.7732 6.87163 22.4815 6.98829 22.1782 6.98829ZM5.8215 6.98829C5.51817 6.98829 5.2265 6.87163 4.99317 6.64996L4.8415 6.48663C4.3865 6.03163 4.3865 5.29663 4.8415 4.84163C5.2965 4.38663 6.0315 4.38663 6.4865 4.84163L6.63817 4.99329C7.09317 5.44829 7.09317 6.18329 6.63817 6.63829C6.4165 6.87163 6.11317 6.98829 5.8215 6.98829ZM13.9998 3.54663C13.3582 3.54663 12.8332 3.06829 12.8332 2.42663V2.33329C12.8332 1.69163 13.3582 1.16663 13.9998 1.16663C14.6415 1.16663 15.1665 1.69163 15.1665 2.33329C15.1665 2.97496 14.6415 3.54663 13.9998 3.54663Z" fill="#626262"/>
</svg>
