<svg width="28" height="28" viewBox="0 0 28 28" fill="none" xmlns="http://www.w3.org/2000/svg">
<path d="M13.9998 14.8749C10.3015 14.8749 7.2915 11.8649 7.2915 8.16659C7.2915 4.46825 10.3015 1.45825 13.9998 1.45825C17.6982 1.45825 20.7082 4.46825 20.7082 8.16659C20.7082 11.8649 17.6982 14.8749 13.9998 14.8749ZM13.9998 3.20825C11.2698 3.20825 9.0415 5.43659 9.0415 8.16659C9.0415 10.8966 11.2698 13.1249 13.9998 13.1249C16.7298 13.1249 18.9582 10.8966 18.9582 8.16659C18.9582 5.43659 16.7298 3.20825 13.9998 3.20825Z" fill="#626262"/>
<path d="M18.4568 26.5417C18.0135 26.5417 17.5935 26.3783 17.2901 26.075C16.9285 25.7133 16.7651 25.1883 16.8468 24.64L17.0685 23.065C17.1268 22.6567 17.3718 22.1784 17.6635 21.875L21.7935 17.745C23.4501 16.0884 24.9085 17.0334 25.6202 17.745C26.2268 18.3517 26.5418 19.005 26.5418 19.6583C26.5418 20.3233 26.2385 20.9417 25.6202 21.56L21.4901 25.69C21.1985 25.9817 20.7085 26.2267 20.3002 26.2851L18.7251 26.5067C18.6318 26.53 18.5501 26.5417 18.4568 26.5417ZM23.6951 18.5733C23.4851 18.5733 23.2985 18.7134 23.0301 18.9817L18.9002 23.1117C18.8652 23.1467 18.8068 23.2633 18.8068 23.31L18.5968 24.7683L20.0551 24.5583C20.1018 24.5467 20.2185 24.4884 20.2535 24.4534L24.3835 20.3233C24.5702 20.1367 24.7918 19.8683 24.7918 19.6583C24.7918 19.4833 24.6518 19.2384 24.3835 18.9817C24.1035 18.7017 23.8935 18.5733 23.6951 18.5733Z" fill="#626262"/>
<path d="M24.4069 22.4234C24.3252 22.4234 24.2435 22.4118 24.1735 22.3884C22.6335 21.9568 21.4085 20.7318 20.9769 19.1918C20.8485 18.7251 21.1169 18.2468 21.5835 18.1185C22.0502 17.9901 22.5285 18.2584 22.6569 18.7251C22.9252 19.6817 23.6835 20.4401 24.6402 20.7084C25.1069 20.8368 25.3752 21.3267 25.2469 21.7817C25.1419 22.1667 24.7919 22.4234 24.4069 22.4234Z" fill="#626262"/>
<path d="M3.97852 26.5417C3.50018 26.5417 3.10352 26.145 3.10352 25.6667C3.10352 20.685 7.99188 16.625 14.0002 16.625C15.2719 16.625 16.5319 16.8117 17.7102 17.1617C18.1769 17.3017 18.4335 17.7917 18.2935 18.2467C18.1535 18.7134 17.6635 18.97 17.2085 18.83C16.1819 18.5267 15.1085 18.3633 14.0002 18.3633C8.96021 18.3633 4.85352 21.63 4.85352 25.655C4.85352 26.145 4.45685 26.5417 3.97852 26.5417Z" fill="#626262"/>
</svg>
