<svg width="81" height="80" viewBox="0 0 81 80" fill="none" xmlns="http://www.w3.org/2000/svg">
<path d="M68.833 33.967H59.1997C51.2997 33.967 44.8663 27.5337 44.8663 19.6337V10.0003C44.8663 8.16699 43.3663 6.66699 41.533 6.66699H27.3997C17.133 6.66699 8.83301 13.3337 8.83301 25.2337V54.767C8.83301 66.667 17.133 73.3337 27.3997 73.3337H53.5997C63.8663 73.3337 72.1663 66.667 72.1663 54.767V37.3003C72.1663 35.467 70.6663 33.967 68.833 33.967ZM41.433 52.6003L34.7663 59.267C34.533 59.5003 34.233 59.7003 33.933 59.8003C33.633 59.9337 33.333 60.0003 32.9997 60.0003C32.6663 60.0003 32.3663 59.9337 32.0663 59.8003C31.7997 59.7003 31.533 59.5003 31.333 59.3003C31.2997 59.267 31.2663 59.267 31.2663 59.2337L24.5997 52.567C23.633 51.6003 23.633 50.0003 24.5997 49.0337C25.5663 48.067 27.1663 48.067 28.133 49.0337L30.4997 51.467V37.5003C30.4997 36.1337 31.633 35.0003 32.9997 35.0003C34.3663 35.0003 35.4997 36.1337 35.4997 37.5003V51.467L37.8997 49.067C38.8663 48.1003 40.4663 48.1003 41.433 49.067C42.3997 50.0337 42.3997 51.6337 41.433 52.6003Z" fill="#626262"/>
<path d="M58.6003 29.3663C61.7669 29.3997 66.1669 29.3997 69.9336 29.3997C71.8336 29.3997 72.8336 27.1663 71.5003 25.833C66.7003 20.9997 58.1003 12.2997 53.1669 7.36632C51.8003 5.99965 49.4336 6.93298 49.4336 8.83298V20.4663C49.4336 25.333 53.5669 29.3663 58.6003 29.3663Z" fill="#626262"/>
</svg>
